<svg xmlns="http://www.w3.org/2000/svg" viewBox="0 0 263.52 263.52"><defs><style>.cls-1{fill:#75c69a;}</style></defs><g id="Layer_1" data-name="Layer 1"><path class="cls-1" d="M141.38,39.83c-34.63,0-49.32,22.73-49.32,50.7v21.34c0,21.34,7.76,30.48,24.94,39.9l12.65,6.9v61.55c-8.53-4.35-12.1-14-12.1-25.79v-3.88h-8v5c0,18.28,7.75,34.9,31.59,34.9s31.3-16.62,31.3-34.9V190c0-16.06-5-20.5-29.09-33.8l-18-9.7c-20-10.8-25.21-17.45-25.21-37.12v-18c0-23.55,10.53-43.78,41.28-43.78s41.28,20.23,41.28,43.78v22.44h8V90.53C190.7,62.56,176,39.83,141.38,39.83Z" transform="translate(-11.84 -10.8)"/><path class="cls-1" d="M160.78,144l-16.63-8.86c-25.21-13.3-25.76-16.63-25.76-31.32V93.59c0-16.07,6.64-28.27,23-28.27,16.62,0,23.28,12.2,23.28,28.27v20.22h8V92.47c0-18.28-7.76-34.91-31.31-34.91s-31,16.63-31,34.91v13.86c0,16.62,2.22,21.89,25.49,34.08L153,149.55c20.77,11.09,29.64,18,29.64,36.85v10.25c0,23.56-10.52,43.78-41.55,43.78s-41.57-20.22-41.57-43.78v-6.1h-8v6.94c0,28,14.68,50.69,49.6,50.69s49.59-22.72,49.59-50.69V183.63C190.7,162.85,178.78,153.71,160.78,144Z" transform="translate(-11.84 -10.8)"/><path class="cls-1" d="M143.6,274.32C71,274.32,11.84,215.21,11.84,142.56S71,10.8,143.6,10.8,275.36,69.91,275.36,142.56,216.25,274.32,143.6,274.32Zm0-255.43A123.67,123.67,0,1,0,267.27,142.56,123.81,123.81,0,0,0,143.6,18.89Z" transform="translate(-11.84 -10.8)"/></g></svg>